<svg xmlns="http://www.w3.org/2000/svg" version="1.1" xmlns:xlink="http://www.w3.org/1999/xlink" xmlns:svgjs="http://svgjs.dev/svgjs" width="100%" height="100%" viewBox="0 0 1000 600"><rect width="1000" height="600" x="0" y="0" fill="#f4a950"/><g><rect width="333.3333333333333" height="333.3333333333333" rx="13.333333333333334" ry="13.333333333333334" y="128.51330146724916" fill="#161b21" transform="matrix(1.1760159767063116,0,0,1.1760159767063114,0,-47.136362817312374)" x="106.29109954833983"/><path d="M234.79538362033665 370.1799753515385L218.1153353447376 370.1799753515385L218.1153353447376 220.1799744327033L249.33773617830482 220.1799744327033L306.78454504083743 355.4268640608461L311.3309119896019 355.4268640608461L311.3309119896019 220.1799744327033L327.80020153247676 220.1799744327033L327.80020153247676 370.1799753515385L297.24018528747115 370.1799753515385L238.92023310365266 234.90297733300648L234.79538362033665 234.90297733300648L234.79538362033665 370.1799753515385Z " fill="#f4a950" transform="matrix(1.1760159767063116,0,0,1.1760159767063114,0,-47.136362817312374)"/><path d="M538.4098825338011 368.1196857867726L522.9577656061299 368.1196857867726L522.9577656061299 265.10557293563136L538.4098825338011 265.10557293563136L538.4098825338011 368.1196857867726ZM538.4098825338011 241.81293741873446L522.9577656061299 241.81293741873446L522.9577656061299 223.89992779517493L538.4098825338011 223.89992779517493L538.4098825338011 241.81293741873446ZM583.5357869688704 320.9334990946804L583.5357869688704 368.1196857867726L568.0836700411993 368.1196857867726L568.0836700411993 220.17997371999482L583.5357869688704 220.17997371999482L583.5357869688704 307.541664424032L599.6174345861874 306.71182851495337L629.0623018428053 265.10557293563136L646.5747010274993 265.10557293563136L613.0092692568359 312.49206484715637L648.0340676262238 368.1196857867726L630.5216684415298 368.1196857867726L599.8177398056202 320.33258343638204L583.5357869688704 320.9334990946804ZM734.1366969509693 355.35738180577005L734.1366969509693 355.35738180577005L740.117238502605 354.72785111612416L740.5464639728181 366.8892394388283Q717.0535232364884 370.1799680437954 700.370959960873 370.1799680437954L700.370959960873 370.1799680437954Q678.1084655724875 370.1799680437954 668.8371954158848 357.3032039374027Q659.5659252592822 344.42643983101004 659.5659252592822 317.2421600508478L659.5659252592822 317.2421600508478Q659.5659252592822 263.0452906786086 702.6315474373287 263.0452906786086L702.6315474373287 263.0452906786086Q723.4346752269896 263.0452906786086 733.7360865121037 274.69160843705697Q744.0374977972178 286.3379261955055 744.0374977972178 311.2616184992121L744.0374977972178 311.2616184992121L743.2076618881392 322.9937813517032L675.2183474063861 322.9937813517032Q675.2183474063861 340.10557009753165 681.3991941774545 348.346699125623Q687.580040948523 356.5878281537142 702.9463127821515 356.5878281537142Q718.2839695844325 356.5878281537142 734.1366969509693 355.35738180577005ZM675.0180421869533 310.6320878095663L728.5853808695467 310.6320878095663Q728.5853808695467 291.6889370574953 722.5189942238684 283.84841846826953Q716.4239925468426 276.03651491039136 702.7173925313712 276.03651491039136Q689.0394075472475 276.03651491039136 682.1145699611429 284.2776439384827Q675.2183474063861 292.5187729665739 675.0180421869533 310.6320878095663L675.0180421869533 310.6320878095663Z " fill="#161b21" transform="matrix(1.1760159767063116,0,0,1.1760159767063114,0,-47.136362817312374)"/></g></svg>